**ABCDEFGHIJKLMNOPQRSTUVWXYZabcdefghijklmnopqrstuvwxyz**************************
**PARASOLID !"#$%&'()*+,-./:;<=>?@[\]^_`{|}~0123456789**************************
**PART1;
MC=unknown;
MC_MODEL=unknown;
MC_ID=unknown;
OS=unknown;
OS_RELEASE=unknown;
FRU=Parasolid 37.1.212;
APPL=Onshape;
SITE=unknown;
USER=unknown;
FORMAT=text;
GUISE=transmit;
KEY=BTGapi::writeModels_.xmt;
FILE=BTGapi::writeModels_.xmt;
DATE=2026-04-17T10:38:48 (UTC);
**PART2;
SCH=SCH_3701212_37102;
USFLD_SIZE=0;
**PART3;
**END_OF_HEADER*****************************************************************
T51 : TRANSMIT FILE created by modeller version 370121223 SCH_3701212_37102_1300
6239 0 12 36 CCCI7 lattice222 0 CCCI4 mesh1006 0 I8 polyline1008 0 CCCCCCCDI5 ow
ner1040 0 CCCI16 boundary_lattice222 0 CCCI13 boundary_mesh1006 0 I17 boundary_p
olyline1008 0 CCCA16 index_map_offset0 0 1 dA9 index_map82 0 A17 node_id_index_m
ap82 0 A20 schema_embedding_map82 0 A5 child12 0 A14 lowest_node_id0 0 1 dA16 me
sh_offset_data206 0 Z1 833 2 3 0 0 0 0 0 0 0 1e3 1e-8 0 4 5 1 0 1 2 6 0 7 8 9 0
 0 10 11 12 0 0 0 0 0 0 0 81 255 1 2 821 13 1 14 0 0 0 15 70 11 CI9 list_type0 0
 1 uI10 notransmit0 0 1 lCCCDCCDI12 finger_index0 0 1 dI12 finger_block1012 0 CZ
3 0 4 T1 0 0 5 20 1 16 16 13 255 6 39 0 1 0 17 0 0 18 0 51 255 7 38 0 19 20 0 21
 -0 2449293598294705e-33 .15 0 0 -1 .04 -1 0 0 30 255 8 659 0 11 22 0 0 -.033915
33576422325 -.016 .025 0 0 -1 29 255 9 656 0 12 23 0 .03391533576422325 -.016 8e
-4 19 9 CCCCCCI5 frame230 0 CA5 owner12 0 Z10 13 0 1 18 0 24 0 V0 16 255 11 657
 25 ?27 0 30 8 0 0 1 18 255 12 652 29 26 0 28 9 ?1 81 1 29 803 34 12 0 0 35 32 3
3 17 255 26 0 31 38 40 12 36 39 0 27 -18 28 467 37 41 12 45 23 ?1 81 1 37 591 34
 28 0 0 43 42 44 17 41 0 46 50 48 28 47 49 0 51 +18 45 476 55 52 28 53 54 ?1 29
 23 564 0 28 54 9 .03578603079415205 .016 8e-4 29 54 565 0 45 57 23 .03666060555
964675 .016 0 29 57 566 0 53 60 54 .03578603079415205 .016 .03 18 53 462 59 56 4
5 58 57 ?1 29 60 567 0 58 61 57 .03666060555964675 .016 .03 18 58 460 62 64 53 6
3 60 ?1 29 61 568 0 63 65 60 .03578603079415205 -.016 8e-4 18 63 469 43 67 58 70
 61 ?1 29 65 569 0 70 69 61 .03578603079415205 -.016 .03 18 70 461 66 68 63 75 6
5 ?1 29 69 570 0 75 71 65 .0366606055596467 -.016 .03 18 75 475 42 73 70 72 69 ?
1 29 71 571 0 72 74 69 .03666060555964675 -.016 0 18 72 457 76 80 75 77 71 ?1 29
 74 769 0 77 78 71 .03391533576422325 .016 8e-4 18 77 734 79 40 72 81 74 ?1 29 7
8 773 0 81 85 74 .03391533576422325 -.016 0 18 81 736 35 38 77 83 78 ?1 29 85 77
4 0 83 0 78 .03391533576422325 .016 0 18 83 732 32 82 81 0 85 ?1 81 1 32 804 34
 83 0 0 29 79 84 17 82 0 31 40 38 83 89 90 0 87 -15 255 31 741 0 40 88 0 17 40 0
 31 26 82 77 87 86 0 36 +17 38 0 31 82 26 81 27 11 0 89 -17 89 0 93 95 91 81 82
 90 0 94 +16 90 703 92 ?89 39 0 96 0 0 1 17 87 0 46 52 50 83 40 86 0 91 -15 46 6
74 0 87 100 0 17 52 0 46 64 87 45 91 98 0 97 -17 50 0 46 87 41 77 51 99 0 0 +16
 86 720 101 ?40 98 39 105 0 0 1 17 91 0 93 89 103 83 52 98 0 0 +15 93 27 0 91 17
 0 17 103 0 93 91 95 45 102 104 0 0 -16 98 421 106 ?91 110 86 107 0 0 1 81 1 106
 811 34 98 0 0 108 109 112 16 110 436 108 ?94 115 98 114 0 0 1 30 107 555 0 98 1
05 114 0 +.1878929422805595 .016 0 -1 0 0 30 105 764 0 86 111 107 0 -.0339153357
6422325 .016 .025 0 0 -1 30 114 554 0 110 107 113 0 +.1878929422805595 -.016 0 -
1 0 0 30 113 553 0 115 114 116 0 +.1878929422805595 -.016 .03 -1 0 0 16 115 430
 117 ?119 118 110 113 0 0 1 30 116 552 0 118 113 120 0 +.1878929422805595 .016 .
03 -1 0 0 16 118 424 122 ?48 125 115 116 0 0 1 30 120 551 0 125 116 124 0 +.0357
8603079415205 -.016 .15 0 0 -1 16 125 400 121 ?123 130 118 120 0 0 1 30 124 550
 0 130 120 126 0 +.0366606055596467 -.016 .15 0 0 -1 16 130 433 128 ?80 49 125 1
24 0 0 1 30 126 549 0 49 124 127 0 +.03578603079415205 .016 .15 0 0 -1 16 49 391
 129 ?41 131 130 126 0 0 1 30 127 548 0 131 126 135 0 +.0366606055596467 .016 .1
5 0 0 -1 16 131 383 132 ?97 133 49 127 0 0 1 38 12 CCCCCCCCCCCA17 intersection_d
ata204 0 Z135 547 0 133 127 134 0 +7 136 140 138 137 139 16 133 427 144 ?73 145
 131 135 0 0 1 38 134 254 0 142 135 143 0 +7 141 148 150 150 146 51 136 542 0 14
9 147 151 155 -.1878929422805595 0 .03 -1 0 0 .016 0 0 1 40 255 11 140 0 1 11 .0
0101576255678207 .3605125230683025 ??.03666060555964675 .016 .03 .03700682879983
83 .01518204934056855 .0350502849246891 .0378776649617264 .01285622405868858 .03
952457363627355 .0389599079433681 .00906231609712891 .0431861452652289 .03979606
13311389 .00403404295071703 .0454831036123824 .03998014719030625 -.0012600915210
59766 .045950303111808 .03952863075059585 -.00612269148194216 .04478217335228325
 .0386240978470567 -.010400916570235 .04215816328641015 .0375385554934513 -.0138
1509505812678 .0380711305611371 .03677394575288365 -.01573775440664805 .03288497
595068495 .03666060555964675 -.016 .03 41 3 CI8 term_use0 0 1 cCZ1 138 L?.036660
60555964675 .016 .03 41 1 137 L?.03666060555964675 -.016 .03 204 2 17 INTERSECTI
ON_DATA17 Intersection data7 uv_type0 0 1 u6 values0 1 1 fT44 139 4 2.7300758075
22305 .12 1.570796326794895 .1512323367209125 2.752281468840565 .114949715075311
 1.2496623091921 .150886113480721 2.814379180328805 .1104754263637264 .933174972
267362 .150015277318833 2.91305042124104 .106813854734771 .602124661062561 .1489
330343371912 3.040569834233965 .1045168963876176 .2548783436875925 .148096880949
4204 3.17310015439226 .104049696888192 6.20434794579188 .147912795090253 3.29526
4049284225 .1052178266477168 5.89050269374461 .1483643115299634 3.40463858695043
 .10784183671359 5.57552548565632 .1492688444335026 3.494233530390665 .111928869
438863 5.24112881451363 .150354386787108 3.545967235590595 .117115024049315 4.89
369160167959 .1511189965276755 3.55310949965728 .12 4.71238898038469 .1512323367
209125 14 255 149 519 153 ?88 152 154 6 136 +0 0 88 152 24 50 255 147 543 0 156
 160 136 0 +.1878929422805595 -.016 .015 0 1 2312964634635745e-31 0 -23129646346
35745e-31 1 50 151 541 0 100 136 141 0 +.1878929422805595 .016 .015 0 1 -2312964
634635745e-31 0 2312964634635745e-31 1 141 255 155 22 158 158 136 38 22 297 0 30
 157 8 0 +159 136 161 165 162 163 141 158 135 155 155 136 16 30 295 164 ?167 11
 99 22 0 0 1 30 157 287 0 99 170 22 0 +0 .016 8e-4 -1 0 0 51 159 73 0 169 166 16
8 171 -0 2449293598294705e-33 .15 0 0 -1 .0392 -1 0 0 40 11 161 0 1 11 .00102070
5801125744 .3613054129475735 ??.03578603079415205 .016 .03 .0361391815719285 .01
5185504776305 .03503988538449215 .03702668704175415 .0128710701463397 .039504501
73801885 .0381322384929458 .00908693499025406 .0431691917930789 .038989580819313
25 .004056178932720035 .0454773192919755 .0391804911023257 -.001236574696722934
 .0459521435242862 .0387242412026367 -.00608877190244574 .0447961770981557 .0378
057788997034 -.01036161579034576 .0421916741349684 .03669585837696555 -.01378600
660008858 .038120715610235 .0359060973035037 -.01572870549127685 .03293390926387
935 .03578603079415205 -.016 .03 41 1 165 L?.03578603079415205 .016 .03 41 1 162
 L?.03578603079415205 -.016 .03 204 44 163 4 2.721151456759925 .12 1.57079632679
4895 .1521069114864075 2.74379888130898 .114960114615508 1.25034722044642 .15175
3760708631 2.807043210229785 .1104954982619812 .93473533022979 .150866255238805
 2.907655145070045 .106830808206921 .603992888807866 .1497607037876136 3.0379331
59035395 .1045226807080244 .2563082969088055 .148903361461246 3.173143160615355
 .104047856475714 6.20582224150001 .1487124511782336 3.297549915114395 .10520382
29018442 5.89279623372307 .1491687010779226 3.40909862082572 .1078083258650316 5
.57875349454055 .150087163380856 3.500961898805855 .111879284389765 5.2447217867
3401 .151197083903594 3.55446556584043 .1170660907361206 4.89680178782114 .15198
68449770555 3.56203385041966 .12 4.71238898038469 .1521069114864075 14 169 60 17
2 ?174 173 175 6 159 +0 0 174 173 24 51 166 172 0 177 141 159 180 +4336808689942
02e-33 .1878929422805595 .01 0 -1 0 .0025 0 0 -1 50 168 72 0 174 159 179 0 +0 0
 8e-4 0 0 1 1 0 0 141 171 176 178 185 159 38 176 87 0 181 183 182 0 +159 166 184
 186 186 190 141 178 22 187 171 159 141 185 182 171 187 159 38 182 94 0 188 176
 189 0 +159 166 191 195 195 193 141 187 189 185 178 159 38 189 199 0 145 182 170
 0 +159 141 192 194 194 199 16 145 217 200 ?197 142 133 189 0 0 1 30 170 284 0 1
98 189 157 0 +0 -.016 8e-4 -1 0 0 51 141 251 0 152 151 166 196 +433680868994202e
-33 .1878929422805595 .14 0 -1 0 .0025 0 0 -1 40 20 192 0 1 20 .0001413149078226
154 .3379801233285875 ??433680868994202e-33 .0392 .1375 .000826562285546427 .039
19128467897055 .1376405943994064 .001559924024614165 .0391689499098129 .13804637
84815294 .00211846997696899 .03914271432791395 .1386725645188254 .00243856660116
387 .0391240768955855 .139449188842081 .00248346818394218 .0391212523544345 .140
2870292308232 .00224922459093645 .0391354185967076 .1410913243053862 .0017621626
13557365 .03916037260960855 .141773353581038 .001075695209043652 .03918523803445
935 .142256740972562 .000267621244514862 .03919908645452705 .142485634500381 -.0
00569304911360933 .0391958657503301 .1424343154926796 -.001341433133393036 .0391
770411995168 .1421096343637312 -.001963587897563315 .03915078955230075 .14154735
9870406 -.00236523966271472 .03912857831991755 .1408097168257614 -.0024999284041
0459 .03912020396130815 .1399810797898778 -.00235322617966611 .0391293026585874
 .1391560055999392 -.001942274802991765 .03915185268400035 .1384259705880564 -.0
01312029104885 .03917803695475225 .1378719540352862 -.000533104350576672 .039196
37482920325 .1375575013303184 2103610228357005e-33 .0392 .1375 41 1 194 H?210361
0228357005e-33 .0392 .1375 204 80 199 4 1.570796326794895 .0125 0 .1486929422805
594 1.591883662188275 .01235940560059356 .3369656505940415 .1487016576015888 1.6
10600817204225 .01195362151847064 .67381227350514 .1487239923707464 1.6248652690
43775 .0113274354811745 1.011046533401526 .1487502279526454 1.633044851584515 .0
1055081115791902 1.348649231606636 .148768865384974 1.63419256425388 .0097129707
6917685 1.685861763197765 .148771689926125 1.62820603580641 .00890867569461376 2
.02253418086138 .1487575236838518 1.615764608567445 .0082266464189619 2.35935977
9075345 .1487325696709508 1.59824097623599 .00774325902743792 2.6967918404067 .1
487077042461 1.57762345239391 .00751436549961901 3.034338642651105 .148693855826
0324 1.556272731738155 .00756568450732031 3.37133019085846 .1486970765302292 1.5
365694114906 .00789036563626885 3.70796366535994 .1487159010810426 1.52068382715
4745 .00845264012959401 4.0449915342677 .1487421527282586 1.51042190881444 .0091
9028317423859 4.382554188284655 .1487643639606418 1.50697933489972 .010018920210
12224 4.71995713668024 .1487727383192512 1.51072893176993 .01084399440006084 5.0
5675263524535 .148763639621972 1.521228204545765 .01157402941194354 5.3934423735
3582 .148741089596559 1.537319944265765 .0121280459647138 5.73069148969993 .1487
14905325807 1.55719630677424 .0124424986696816 6.0682934846367 .148696567451356
 1.570796326794895 .0125 667971743745121e-30 .1486929422805594 14 152 236 203 ?1
49 177 205 6 141 -0 0 149 177 24 141 196 189 201 201 141 141 201 134 196 196 141
 81 1 203 831 204 152 202 0 206 153 210 14 177 137 206 ?152 208 207 6 166 -208 2
08 152 208 24 15 205 229 0 197 152 209 13 24 14 0 0 0 0 0 0 10 17 14 17 23 211 ?
100 0 93 6 20 -0 0 100 0 24 81 1 211 822 204 17 215 0 0 213 212 14 100 515 213 ?
156 17 46 6 151 -0 0 156 17 24 50 20 32 0 17 179 7 0 +0 0 0 0 0 1 1 0 0 50 179 3
 0 173 168 20 0 +0 0 .15 0 0 1 1 0 0 14 173 1 214 ?169 19 216 6 179 +0 0 169 19
 24 81 1 214 826 204 173 220 0 217 172 218 14 19 35 217 ?173 156 219 6 7 -0 0 17
3 156 24 15 216 52 0 222 173 225 17 222 0 216 222 222 0 224 221 0 0 -15 225 6 0
 223 173 0 17 223 0 225 223 223 0 226 227 0 0 +17 226 0 229 226 226 0 223 227 0
 0 -16 227 7 228 ?223 198 104 230 0 0 1 81 1 228 45 34 227 0 0 0 232 235 16 198
 283 109 ?234 99 227 170 0 0 1 16 104 28 231 ?102 227 221 183 0 0 1 31 255 230 9
 0 227 233 183 0 +0 2449293598294705e-33 .15 0 0 1 1 0 0 .04 31 233 75 0 221 240
 230 0 +0 2449293598294705e-33 .15 0 0 1 1 0 0 .0392 31 183 33 0 104 230 176 0 +
0 2449293598294705e-33 0 0 0 1 1 0 0 .04 16 221 58 236 ?224 104 238 233 0 0 1 31
 240 76 0 238 237 233 0 +0 2449293598294705e-33 8e-4 0 0 1 1 0 0 .0392 16 238 56
 239 ?241 221 245 240 0 0 1 38 237 175 0 245 143 240 0 +7 166 242 243 243 244 16
 245 119 246 ?250 238 248 237 0 0 1 38 143 176 0 248 134 237 0 +7 166 247 249 24
9 254 40 20 242 0 1 20 .0001412995462040184 .337955957333015 ??433680868994202e-
33 .04 .0075 .000826599916810162 .03999145824519945 .00764060758297196 .00155999
552727839 .0399695685985585 .00804643557698462 .002118525734527965 .039943858710
84745 .00867265350712681 .002438584627820825 .0399255971152963 .0094492686562796
9 .00248345703284586 .03992283107654075 .01028712569722762 .002249152095921555 .
03993671637540335 .01109147370532306 .001762006501771775 .03996117281922185 .011
77350869400574 .001075502000159544 .03998553857893695 .01225683305710742 .000267
426126224315 .0399991060308479 .01248565550046916 -.000569531973161405 .03999594
521112795 .01243426237935578 -.00134169119449074 .03997749197659385 .01210947025
070892 -.001963798383874305 .0399517646156899 .011547092727503 -.002365343665750
33 .03993000312225 .0108094129619019 -.002499925983068055 .03992180319172945 .00
998076255783053 -.002353100022955745 .0399307265183338 .00915565393234428 -.0019
4199698183173 .0399528302842559 .00842562783225933 -.001311642835911122 .0399784
891294181 .00787171593272819 -.000532683632904393 .03999645294457045 .0075574095
4164728 2543135634907665e-34 .04 .0075 41 1 243 H?2543135634907665e-34 .04 .0075
 204 80 244 4 1.570796326794895 .1425 0 .1478929422805594 1.59146279580202 .1423
59392417028 .336981600106435 .14790148403536 1.60980610816467 .1419535644230154
 .673848874099679 .147923373682001 1.623784262570315 .1413273464928732 1.0110885
3877862 .147949083569712 1.631798770164065 .1405507313437202 1.348681961450332 .
147967345165263 1.632922709640835 .1397128743027724 1.68590060670768 .1479701112
040186 1.62705480099136 .138908526294677 2.0226006047948 .147956225905156 1.6148
60747739015 .1382264913059942 2.359447807182095 .1479317694613374 1.597687117535
73 .1377431669428926 2.696877452776285 .1479074037016224 1.577482029757345 .1375
143444995308 3.034417140703085 .1478938362497114 1.55655754633554 .1375657376206
442 3.37142346729617 .1478969970694314 1.537247754096045 .137890529749291 3.7080
8599515309 .1479154503039654 1.521681623388845 .138452907272497 4.04512757533086
5 .1479411776648694 1.51162821793241 .139190587038098 4.382682656102685 .1479629
391583094 1.508257419046325 .1400192374421694 4.72008403319452 .14797113908883 1
.511934842796815 .1408443460676556 5.05690207987757 .1479622157622256 1.52222730
919149 .1415743721677406 5.39361885747682 .1479401119963034 1.53799937659506 .14
21282840672718 5.73087299299968 .1479144531511412 1.557478842321165 .14244259045
83526 6.06846573028472 .147896489335989 1.570796326794895 .1425 0 .1478929422805
594 16 248 122 255 ?252 245 188 143 0 0 1 40 20 247 0 1 20 .0001412995462040184
 .337955957333015 ??433680868994202e-33 -.04 .0075 -.000826599916810161 -.039991
45824519945 .00764060758297196 -.00155999552727839 -.0399695685985585 .008046435
57698462 -.002118525734527965 -.03994385871084745 .00867265350712681 -.002438584
62782082 -.0399255971152963 .00944926865627969 -.00248345703284586 -.03992283107
654075 .01028712569722762 -.002249152095921555 -.03993671637540335 .011091473705
32306 -.001762006501771775 -.03996117281922185 .01177350869400574 -.001075502000
159542 -.03998553857893695 .01225683305710742 -.000267426126224314 -.03999910603
08479 .01248565550046916 .000569531973161406 -.03999594521112795 .01243426237935
578 .00134169119449074 -.03997749197659385 .01210947025070892 .00196379838387431
 -.0399517646156899 .011547092727503 .00236534366575033 -.03993000312225 .010809
4129619019 .002499925983068055 -.03992180319172945 .00998076255783053 .002353100
022955745 -.0399307265183338 .00915565393234428 .00194199698183173 -.03995283028
42559 .00842562783225933 .001311642835911122 -.0399784891294181 .007871715932728
19 .000532683632904393 -.03999645294457045 .00755740954164728 613048174497637e-3
3 -.04 .0075 41 1 249 H?613048174497637e-33 -.04 .0075 204 80 254 4 4.7123889803
8469 .1425 0 .2278929422805595 4.73305544939181 .142359392417028 5.9462037070731
5 .227884400525759 4.75139876175446 .1419535644230154 5.60933643307991 .22786251
0879118 4.76537691616011 .1413273464928732 5.27209676840097 .227836800991407 4.7
7339142375386 .1405507313437202 4.93450334572925 .2278185393958555 4.77451536323
063 .1397128743027724 4.59728470047191 .2278157733571 4.76864745458116 .13890852
6294677 4.26058470238479 .2278296586559625 4.75645340132881 .1382264913059942 3.
92373749999749 .227854115099781 4.73927977112552 .1377431669428926 3.58630785440
33 .2278784808594965 4.71907468334714 .1375143444995308 3.2487681664765 .2278920
483114075 4.69815019992533 .1375657376206442 2.91176183988342 .2278888874916875
 4.67884040768584 .137890529749291 2.5750993120265 .2278704342571535 4.663274276
97864 .138452907272497 2.23805773184872 .2278447068962495 4.6532208715222 .13919
0587038098 1.9005026510769 .2278229454028095 4.64985007263612 .1400192374421694
 1.563101273985065 .227814745472289 4.65352749638661 .1408443460676556 1.2262832
27302016 .227823668798893 4.66381996278128 .1415743721677406 .889566449702769 .2
278457725648155 4.67959203018485 .1421282840672718 .552312314179911 .22787143140
99775 4.69907149591096 .1424425904583526 .21471957689487 .22788939522513 4.71238
898038469 .1425 717469222013741e-31 .2278929422805595 81 1 255 188 34 248 0 0 22
0 246 253 17 252 0 251 252 252 0 258 248 0 0 +16 188 128 260 ?256 248 181 182 0
 0 1 81 1 260 191 34 188 0 0 259 257 261 17 256 0 207 256 256 0 265 188 0 0 +16
 181 125 259 ?263 188 142 176 0 0 1 81 1 259 190 34 181 0 0 246 260 262 17 263 0
 264 263 263 0 266 181 0 0 +16 142 214 270 ?268 181 145 134 0 0 1 81 1 270 258 3
4 142 0 0 267 200 269 17 268 0 219 268 268 0 271 142 0 0 +15 219 204 0 268 19 27
5 17 271 0 209 271 271 0 268 142 0 0 -15 209 230 0 271 152 0 15 275 105 0 250 19
 251 17 250 0 275 250 250 0 272 245 0 0 +15 251 99 0 252 19 229 15 229 34 0 226
 19 273 15 273 36 0 274 19 0 17 274 0 273 97 277 58 73 133 0 0 -17 97 0 273 102
 274 45 64 131 0 103 +17 277 0 273 274 102 75 80 130 0 0 -17 73 0 154 119 280 75
 274 133 0 279 +15 154 490 0 73 149 0 17 119 0 154 56 73 70 279 115 0 167 +17 28
0 0 154 73 56 58 48 118 0 274 -17 279 0 276 80 68 75 119 115 0 277 -15 276 506 0
 94 156 0 17 80 0 276 94 279 72 277 130 0 95 +17 68 0 276 279 67 70 123 125 0 11
9 -17 67 0 276 68 27 63 234 198 0 123 -17 123 0 175 278 167 63 68 125 0 241 +15
 175 299 0 47 169 281 17 278 0 175 47 123 28 241 238 0 0 -17 167 0 175 123 47 70
 56 30 0 0 +17 241 0 282 234 51 63 278 238 0 0 +15 282 286 0 234 174 0 17 234 0
 282 36 241 12 67 198 0 0 +17 51 0 282 241 36 28 50 99 0 278 -17 36 0 282 51 234
 77 26 39 0 50 +16 99 285 284 ?50 30 198 157 0 0 1 81 1 284 813 34 99 0 0 109 28
3 285 80 7 CCCCCDI12 legal_owners0 17 1 lCZ1 34 287 290 9000 0 0 0 0 3 6 0 0 0 F
FTFTFTTFFFFFFFFF1 81 1 109 812 34 198 0 0 106 284 289 81 1 283 814 34 88 0 286 2
84 288 295 82 255 3 285 24 7 1 14 88 746 286 ?0 149 31 6 160 +0 0 0 149 24 81 1
 286 833 204 88 283 0 153 0 291 81 1 288 815 34 156 0 293 283 292 294 82 3 295 2
4 0 2 14 156 523 293 ?19 100 276 6 147 +0 0 19 100 24 81 1 293 824 204 156 288 0
 213 217 296 81 1 292 816 34 100 0 213 288 215 300 82 3 294 24 1 2 81 1 213 823
 204 100 292 0 211 293 297 81 1 215 817 34 17 0 211 292 298 299 82 3 300 24 2 2
 81 1 298 818 34 174 0 301 215 0 305 82 3 299 24 3 2 14 174 67 301 ?208 169 282
 6 168 +0 0 208 169 24 81 1 301 828 204 174 298 0 172 303 302 82 3 305 24 4 2 80
 1 204 0 304 8001 0 0 0 0 3 5 0 0 0 FFFFTFTFFFFFFFFFF2 81 1 172 827 204 169 309
 0 214 301 310 81 1 303 829 204 208 257 0 301 206 307 83 255 3 302 .615686274509
804 .811764705882353 .929411764705882 14 208 157 303 ?177 174 264 6 166 -177 177
 177 174 24 81 1 257 192 34 208 0 303 260 267 308 81 1 206 830 204 177 267 0 303
 203 306 83 3 307 .615686274509804 .811764705882353 .929411764705882 81 1 267 19
3 34 177 0 206 257 270 313 83 3 306 .615686274509804 .811764705882353 .929411764
705882 82 3 313 11 3 2 82 3 308 11 2 2 15 264 145 0 263 208 315 15 315 146 0 258
 208 0 17 258 0 315 258 258 0 252 248 0 0 -81 1 309 625 34 169 0 172 311 35 314
 83 3 310 .615686274509804 .811764705882353 .929411764705882 81 1 311 624 34 19
 0 217 312 309 316 81 1 35 802 34 81 0 0 309 29 320 82 3 314 20 7 2 82 3 320 24
 0 0 81 1 217 825 204 19 311 0 293 214 318 81 1 312 618 34 149 0 153 239 311 317
 82 3 316 20 6 2 81 1 153 832 204 149 312 0 203 286 319 81 1 239 617 34 238 0 0
 231 312 321 82 3 317 20 0 2 81 1 231 616 34 104 0 0 117 239 325 82 3 321 20 17
 1 81 1 117 613 34 115 0 0 122 231 323 82 3 325 20 16 1 81 1 122 612 34 118 0 0
 129 117 322 82 3 323 20 13 1 81 1 129 611 34 49 0 0 121 122 324 82 3 322 20 12
 1 81 1 121 610 34 125 0 0 164 129 326 82 3 324 20 11 1 81 1 164 609 34 30 0 0 1
32 121 330 82 3 326 20 10 1 81 1 132 608 34 131 0 0 128 164 327 82 3 330 20 9 1
 81 1 128 607 34 130 0 0 144 132 328 82 3 327 20 8 1 81 1 144 606 34 133 0 0 59
 128 329 82 3 328 20 7 1 81 1 59 597 34 53 0 0 66 144 332 82 3 329 20 6 1 81 1 6
6 596 34 70 0 0 62 59 335 82 3 332 20 9 0 81 1 62 595 34 58 0 0 42 66 334 82 3 3
35 20 8 0 81 1 42 594 34 75 0 0 37 62 331 82 3 334 20 7 0 82 3 331 20 6 0 83 3 3
19 .615686274509804 .811764705882353 .929411764705882 83 3 318 .615686274509804
 .811764705882353 .929411764705882 79 255 15 304 SDL/TYSA_COLOUR83 3 297 .615686
274509804 .811764705882353 .929411764705882 83 3 296 .615686274509804 .811764705
882353 .929411764705882 83 3 291 .615686274509804 .811764705882353 .929411764705
882 51 160 761 0 88 0 147 0 -0 2296212748401285e-33 .025 0 0 -1 .0375 -1 0 0 82
 3 289 24 6 1 79 9 290 BTI/DetId16 39 711 333 ?36 86 90 111 0 0 1 81 1 333 809 3
4 39 0 0 92 108 336 31 111 765 0 39 96 105 0 -0 2296212748401285e-33 8e-4 0 0 1
 1 0 0 .0375 31 96 767 0 90 0 111 0 +0 2296212748401285e-33 0 0 0 1 1 0 0 .0375
 81 1 92 808 34 90 0 0 101 333 337 81 1 108 810 34 110 0 0 333 106 339 82 3 336
 24 3 1 82 3 339 24 4 1 81 1 101 807 34 86 0 0 25 92 338 82 3 337 24 2 1 81 1 25
 806 34 11 0 0 79 101 340 82 3 338 24 1 1 81 1 79 805 34 77 0 0 32 25 342 82 3 3
40 24 0 1 82 3 342 24 3 0 17 47 0 175 167 278 53 41 49 0 0 -17 56 0 154 280 119
 53 167 30 0 48 -17 48 0 46 41 64 53 280 118 0 47 +17 64 0 46 48 52 58 97 131 0
 280 -15 281 198 0 345 169 344 17 345 0 281 345 345 0 197 145 0 0 -15 344 93 0 2
65 169 341 17 265 0 344 265 265 0 256 188 0 0 -15 341 86 0 266 169 343 17 266 0
 341 266 266 0 263 181 0 0 -15 343 62 0 224 169 0 17 224 0 343 224 224 0 222 221
 0 0 +17 197 0 205 197 197 0 345 145 0 0 +17 27 0 276 67 94 12 38 11 0 234 +17 9
4 0 276 27 80 81 95 110 0 0 +17 95 0 93 103 89 72 94 110 0 102 -17 102 0 273 277
 97 72 103 104 0 0 +17 272 0 350 272 272 0 250 245 0 0 -15 350 141 0 272 177 0 8
1 1 200 259 34 145 0 0 270 202 346 82 3 269 15 0 1 81 1 202 260 34 152 0 203 200
 76 348 82 3 346 15 1 1 81 1 76 588 34 72 0 0 202 55 347 82 3 348 15 0 2 81 1 55
 589 34 45 0 0 76 43 349 82 3 347 20 0 0 81 1 43 590 34 63 0 0 55 37 351 82 3 34
9 20 1 0 82 3 351 20 2 0 81 1 246 189 34 245 0 0 255 259 355 82 3 262 11 2 1 82
 3 355 11 1 1 15 207 140 0 256 177 350 82 3 261 11 3 1 81 1 220 81 34 173 0 214
 236 255 352 82 3 253 11 0 1 81 1 236 78 34 221 0 0 232 220 353 82 3 352 7 2 2 8
1 1 232 49 34 1 0 354 228 236 356 82 3 353 7 1 1 81 1 354 819 360 1 232 14 0 0 3
58 82 3 356 6 0 3 80 1 360 357 359 8038 0 0 0 0 0 0 0 0 0 TTTTTTTTTTTTTFTFT10 81
 1 14 820 357 1 354 2 0 0 364 98 255 6 358 80 97 114 116 32 49 80 1 357 365 362
 8017 0 0 0 0 0 0 0 0 0 TTTTTTTTTTTTTFTFT3 84 255 6 364 Part 179 13 362 SDL/TYSA
_NAME79 14 359 SDL/TYSA_UNAME82 3 235 6 1 1 83 3 218 .615686274509804 .811764705
882353 .929411764705882 83 3 212 .615686274509804 .811764705882353 .929411764705
882 83 3 210 .615686274509804 .811764705882353 .929411764705882 40 20 191 0 1 20
 .0001413149078226 .337980123328591 ??433680868994202e-33 .0392 .0075 .000826562
285546428 .03919128467897055 .00764059439940644 .00155992402461417 .039168949909
8129 .00804637848152936 .00211846997696899 .03914271432791395 .00867256451882549
 .00243856660116387 .0391240768955855 .00944918884208098 .00248346818394218 .039
1212523544345 .01028702923082316 .002249224590936455 .0391354185967076 .01109132
430538622 .001762162613557365 .03916037260960855 .0117733535810381 .001075695209
043664 .03918523803445935 .0122567409725621 .000267621244514864 .039199086454527
05 .012485634500381 -.000569304911360929 .0391958657503301 .01243431549267968 -.
001341433133393032 .0391770411995168 .01210963436373116 -.001963587897563315 .03
915078955230075 .011547359870406 -.00236523966271472 .03912857831991755 .0108097
1682576142 -.00249992840410459 .03912020396130815 .00998107978987775 -.002353226
179666105 .0391293026585874 .00915600559993915 -.00194227480299178 .039151852684
0003 .00842597058805649 -.001312029104885008 .03917803695475225 .007871954035286
21 -.000533104350576668 .03919637482920325 .00755750133031843 454829432758478e-3
3 .0392 .0075 41 1 195 H?454829432758478e-33 .0392 .0075 204 80 193 4 1.57079632
6794895 .1425 0 .1486929422805594 1.591883662188275 .1423594056005936 .336965650
5940405 .1487016576015888 1.610600817204225 .1419536215184706 .67381227350514 .1
487239923707464 1.624865269043775 .1413274354811744 1.011046533401522 .148750227
9526454 1.633044851584515 .140550811157919 1.348649231606636 .148768865384974 1.
63419256425388 .1397129707691768 1.685861763197765 .148771689926125 1.6282060358
0641 .1389086756946138 2.02253418086137 .1487575236838518 1.615764608567445 .138
226646418962 2.359359779075345 .1487325696709508 1.59824097623599 .1377432590274
38 2.696791840406695 .1487077042461 1.57762345239391 .137514365499619 3.03433864
2651105 .1486938558260324 1.556272731738155 .1375656845073202 3.37133019085846 .
1486970765302292 1.5365694114906 .1378903656362688 3.707963665359935 .1487159010
810426 1.520683827154745 .138452640129594 4.0449915342677 .1487421527282586 1.51
042190881444 .1391902831742386 4.382554188284655 .1487643639606418 1.50697933489
972 .1400189202101222 4.71995713668025 .1487727383192512 1.51072893176993 .14084
3994400061 5.05675263524536 .148763639621972 1.521228204545765 .1415740294119434
 5.39344237353581 .148741089596559 1.537319944265765 .1421280459647138 5.7306914
8969992 .148714905325807 1.55719630677424 .1424424986696816 6.0682934846367 .148
696567451356 1.570796326794895 .1425 845942550571057e-32 .1486929422805594 40 20
 184 0 1 20 .0001413149078226 .337980123328591 ??433680868994202e-33 -.0392 .007
5 -.000826562285546427 -.03919128467897055 .00764059439940644 -.0015599240246141
65 -.0391689499098129 .00804637848152936 -.00211846997696899 -.03914271432791395
 .00867256451882549 -.00243856660116387 -.0391240768955855 .00944918884208098 -.
00248346818394218 -.0391212523544345 .01028702923082316 -.002249224590936455 -.0
391354185967076 .01109132430538622 -.001762162613557365 -.03916037260960855 .011
7733535810381 -.001075695209043664 -.03918523803445935 .0122567409725621 -.00026
7621244514863 -.03919908645452705 .012485634500381 .00056930491136093 -.03919586
57503301 .01243431549267968 .001341433133393034 -.0391770411995168 .012109634363
73116 .001963587897563315 -.03915078955230075 .011547359870406 .0023652396627147
25 -.03912857831991755 .01080971682576142 .00249992840410459 -.03912020396130815
 .00998107978987775 .002353226179666105 -.0391293026585874 .00915600559993915 .0
0194227480299178 -.0391518526840003 .00842597058805649 .00131202910488501 -.0391
7803695475225 .00787195403528621 .000533104350576669 -.03919637482920325 .007557
50133031843 4125323052299255e-34 -.0392 .0075 41 1 186 H?4125323052299255e-34 -.
0392 .0075 204 80 190 4 4.71238898038469 .1425 0 .2270929422805595 4.73347631577
807 .1423594056005936 5.94621965658555 .22708422695953 4.75219347079402 .1419536
215184706 5.60937303367445 .2270618921903725 4.76645792263357 .1413274354811744
 5.27213877377806 .2270356566084735 4.77463750517431 .140550811157919 4.93453607
557295 .227017019176145 4.77578521784367 .1397129707691768 4.59732354398182 .227
014194634994 4.7697986893962 .1389086756946138 4.260651126318215 .22702836087726
7 4.75735726215724 .138226646418962 3.923825528104245 .227053314890168 4.7398336
2982578 .137743259027438 3.586393466772895 .2270781803150185 4.7192161059837 .13
7514365499619 3.24884666452848 .2270920287350865 4.69786538532795 .1375656845073
202 2.91185511632113 .2270888080308895 4.67816206508039 .1378903656362688 2.5752
2164181965 .227069983480076 4.66227648074454 .138452640129594 2.238193772911885
 .22704373183286 4.65201456240423 .1391902831742386 1.90063111889493 .2270215206
00477 4.64857198848951 .1400189202101222 1.563228170499335 .2270131462418675 4.6
5232158535972 .140843994400061 1.22643267193423 .227022244939147 4.6628208581355
6 .1415740294119434 .889742933643777 .2270447949645595 4.67891259785556 .1421280
459647138 .552493817479665 .2270709792353115 4.69878896036403 .1424424986696816
 .214891822542885 .2270893171097625 4.71238898038469 .1425 0 .2270929422805595 1
41 180 176 363 361 166 141 363 237 368 180 166 141 361 182 180 368 166 141 368 1
43 361 363 166 40 20 148 0 1 20 .0001412995462040166 .3379559573330195 ??4336808
68994202e-33 .04 .1375 .000826599916810162 .03999145824519945 .137640607582972 .
001559995527278385 .0399695685985585 .1380464355769846 .002118525734527975 .0399
4385871084745 .1386726535071268 .00243858462782082 .0399255971152963 .1394492686
562796 .002483457032845855 .03992283107654075 .1402871256972276 .002249152095921
55 .03993671637540335 .141091473705323 .00176200650177177 .03996117281922185 .14
17735086940056 .001075502000159546 .03998553857893695 .1422568330571074 .0002674
26126224306 .0399991060308479 .1424856555004692 -.000569531973161407 .0399959452
1112795 .1424342623793558 -.001341691194490746 .03997749197659385 .1421094702507
09 -.00196379838387432 .0399517646156899 .141547092727503 -.00236534366575033 .0
3993000312225 .140809412961902 -.002499925983068055 .03992180319172945 .13998076
25578304 -.00235310002295575 .0399307265183338 .1391556539323442 -.0019419969818
31725 .0399528302842559 .1384256278322592 -.001311642835911114 .0399784891294181
 .1378717159327282 -.000532683632904405 .03999645294457045 .1375574095416472 -16
08265952262555e-33 .04 .1375 41 1 150 H?-1608265952262555e-33 .04 .1375 204 80 1
46 4 1.570796326794895 .0125 0 .1478929422805594 1.59146279580202 .0123593924170
2804 .3369816001064355 .14790148403536 1.60980610816467 .0119535644230154 .67384
8874099675 .147923373682001 1.62378426257032 .01132734649287318 1.01108853877863
 .147949083569712 1.631798770164065 .01055073134372034 1.348681961450326 .147967
345165263 1.632922709640835 .00971287430277237 1.685900606707685 .14797011120401
86 1.62705480099136 .00890852629467692 2.022600604794805 .147956225905156 1.6148
60747739015 .00822649130599426 2.359447807182095 .1479317694613374 1.59768711753
573 .00774316694289259 2.696877452776285 .1479074037016224 1.577482029757345 .00
751434449953084 3.03441714070309 .1478938362497114 1.55655754633554 .00756573762
064422 3.37142346729617 .1478969970694314 1.537247754096045 .00789052974929108 3
.70808599515309 .1479154503039654 1.521681623388845 .00845290727249703 4.0451275
75330875 .1479411776648694 1.51162821793241 .00919058703809811 4.382682656102685
 .1479629391583094 1.508257419046325 .01001923744216948 4.72008403319452 .147971
13908883 1.511934842796815 .01084434606765572 5.05690207987757 .1479622157622256
 1.52222730919149 .01157437216774068 5.39361885747682 .1479401119963034 1.537999
37659506 .01212828406727182 5.73087299299968 .1479144531511412 1.557478842321165
 .01244259045835272 6.06846573028471 .147896489335989 1.570796326794895 .0125 6.
28318530717959 .1478929422805594 82 3 112 24 5 1 82 3 84 24 2 0 82 3 44 20 3 0 8
2 3 33 24 1 0 19 18 40 0 1 0 10 6 0 S0 141 21 143 370 366 7 141 370 135 369 21 7
 141 366 237 21 369 7 141 369 134 366 370 7 74 4 CI16 index_map_offset0 0 1 dCCZ
20 16 5 0 0 298 354 14 2 286 0 0 0 0 0 0 0 0 0 0 0 0 0 0 0 80 1 13 204 367 8040
 0 0 0 0 3 5 0 0 0 TTTFFFFFFFFFFFFFF2 83 3 15 .615686274509804 .811764705882353
 .929411764705882 79 17 367 SDL/TYSA_COLOUR_21 0 
