**ABCDEFGHIJKLMNOPQRSTUVWXYZabcdefghijklmnopqrstuvwxyz**************************
**PARASOLID !"#$%&'()*+,-./:;<=>?@[\]^_`{|}~0123456789**************************
**PART1;
MC=unknown;
MC_MODEL=unknown;
MC_ID=unknown;
OS=unknown;
OS_RELEASE=unknown;
FRU=Parasolid 37.1.212;
APPL=Onshape;
SITE=unknown;
USER=unknown;
FORMAT=text;
GUISE=transmit;
KEY=BTGapi::writeModels_.xmt;
FILE=BTGapi::writeModels_.xmt;
DATE=2026-04-17T10:40:28 (UTC);
**PART2;
SCH=SCH_3701212_37102;
USFLD_SIZE=0;
**PART3;
**END_OF_HEADER*****************************************************************
T51 : TRANSMIT FILE created by modeller version 370121223 SCH_3701212_37102_1300
6239 0 12 36 CCCI7 lattice222 0 CCCI4 mesh1006 0 I8 polyline1008 0 CCCCCCCDI5 ow
ner1040 0 CCCI16 boundary_lattice222 0 CCCI13 boundary_mesh1006 0 I17 boundary_p
olyline1008 0 CCCA16 index_map_offset0 0 1 dA9 index_map82 0 A17 node_id_index_m
ap82 0 A20 schema_embedding_map82 0 A5 child12 0 A14 lowest_node_id0 0 1 dA16 me
sh_offset_data206 0 Z1 610 2 3 0 0 0 0 0 0 0 1e3 1e-8 0 4 5 1 0 1 2 6 0 7 8 9 0
 0 10 11 12 0 0 0 0 0 0 0 81 255 1 2 599 13 1 14 0 0 0 15 70 11 CI9 list_type0 0
 1 uI10 notransmit0 0 1 lCCCDCCDI12 finger_index0 0 1 dI12 finger_block1012 0 CZ
3 0 4 T1 0 0 5 20 1 16 16 13 255 6 69 0 1 0 17 0 0 18 0 50 255 7 112 0 19 20 0 0
 +-.0175 0 -780625564189563e-32 0 0 -1 -1 0 0 38 12 CCCCCCCCCCCA17 intersection_
data204 0 Z8 280 0 11 21 0 0 +22 23 24 25 27 30 29 255 9 276 0 12 29 0 -.0295 -1
472014449142408e-42 .003314119623782655 19 9 CCCCCCI5 frame230 0 CA5 owner12 0 Z
10 81 0 1 18 0 26 0 V0 16 255 11 278 28 ?34 0 35 8 0 0 1 18 255 12 274 32 33 0 3
1 9 ?1 81 1 32 576 38 12 0 0 40 36 39 17 255 33 0 37 34 41 12 45 43 0 42 +18 31
 420 44 41 12 46 29 ?1 81 1 44 574 38 31 0 0 50 40 48 17 41 0 37 33 47 31 49 51
 0 45 -18 46 427 55 52 31 53 54 ?1 29 29 510 0 31 54 9 -.0295 0 .003928571428571
41 29 54 511 0 46 57 29 -.03413976747329575 0 0 29 57 512 0 53 60 54 -.0295 -.00
5 .0030135991946724 18 53 407 36 34 46 59 57 ?1 29 60 513 0 59 56 57 -.0295 -.00
5 .003628050999461155 18 59 405 40 58 53 61 60 ?1 29 56 514 0 61 62 60 -.0337716
4081194015 -.005 0 18 61 410 50 64 59 63 56 ?1 29 62 515 0 63 65 56 -.0346410161
5137755 -.005 0 18 63 413 66 70 61 68 62 ?1 29 65 519 0 68 0 62 -.035 0 0 18 68
 411 67 69 63 0 65 ?1 81 1 67 578 38 68 0 0 36 75 71 17 69 0 73 52 45 68 72 74 0
 76 -15 255 73 447 0 52 80 0 17 52 0 73 42 69 46 76 77 0 78 +17 45 0 73 69 42 31
 33 43 0 72 -17 72 0 79 49 83 31 69 74 0 0 +16 74 340 85 ?72 51 81 82 0 0 1 17 7
6 0 84 89 90 68 52 77 0 83 -15 84 270 0 76 19 0 17 89 0 84 87 76 63 83 88 0 0 +1
7 90 0 84 76 87 46 86 93 0 0 -16 77 335 75 ?52 95 0 91 0 0 1 17 83 0 79 72 94 68
 89 88 0 0 -15 79 123 0 83 17 92 17 94 0 79 83 49 63 58 96 0 89 -16 88 83 100 ?8
9 98 97 99 0 0 1 81 1 100 589 38 88 0 0 101 105 103 16 98 85 102 ?104 35 88 106
 0 0 1 16 97 143 110 ?107 88 108 109 0 0 1 31 255 99 113 0 88 112 106 0 +0 0 -15
61251128379125e-32 0 0 -1 -1 0 0 .035 31 112 167 0 93 115 99 0 +0 0 -69388939039
0723e-32 0 0 -1 -1 0 0 .03413976747329575 31 106 114 0 98 99 114 0 +0 0 .0235714
285714286 0 0 -1 -1 0 0 .002 31 114 115 0 35 106 21 0 +0 0 .029 0 0 -1 -1 0 0 .0
02 16 35 90 111 ?113 11 98 114 0 0 1 38 21 185 0 116 114 8 0 +22 117 119 118 118
 120 16 116 200 121 ?125 123 51 21 0 0 1 52 255 22 163 0 122 124 130 126 -0 0 .0
231645618358252 0 0 -1 .00170938090314045 .813733471206735 .581238193719097 -1 0
 0 51 255 117 237 0 128 127 129 131 -.02 -2326828918379955e-34 .1031652228440228
 0 0 -1 .0062 -1 0 0 40 255 20 119 0 1 20 .000628481788618955 .3990463796325855
 ??.0170139143086734 -.00543353405181265 .0116280659442119 .01946312262562375 -.
00617671131629792 .00980003495633958 .0220571164808825 -.00584878378674418 .0080
8598235594353 .02426779307043305 -.004497326128708475 .00675626303344249 .025466
07501245915 -.002926093634552725 .00607581229253648 .02612395599887165 -.0009680
71755544997 .00571277198476132 .0261281476111944 .000941173127226205 .0057104815
4167098 .02559583977643445 .00266956498262807 .00600363618054341 .02459116279048
365 .004166680241064645 .00657007521926111 .02313658992163105 .00534806541316788
 .00742365217006178 .0212632596473752 .00606994028498745 .00859078049571256 .019
06914256613935 .00612972303108602 .01007831970524614 .016790317913837 .005304520
79888129 .0118081811612539 .01486987405563234 .003481638665187075 .0134769538904
0814 .014110675977618 .00193800478827943 .014211876715359 .013816178385072 .0004
476049985748195 .0145116717310235 .01389860832995274 -.001101371730469696 .01442
684947484032 .01430438787240812 -.002449490251466245 .01401940641751652 .0153409
9998698245 -.00409068684681465 .01304481432864444 .01701391431302495 -.005433534
04977301 .0116280659464664 41 3 CI8 term_use0 0 1 cCZ1 118 H?.01701391431302495
 -.00543353404977301 .0116280659464664 204 2 17 INTERSECTION_DATA17 Intersection
 data7 uv_type0 0 1 u6 values0 1 1 fT80 120 4 3.450713358900955 .011536495886841
1 5.2148989413579 .091537156899811 3.44889407682494 .01336452687948564 4.7990906
8994943 .0933651878876833 3.40079291080633 .0150785794798817 4.374185390659665 .
0950792404880793 3.324834558189245 .0164082988023827 3.95317193399419 .096408959
8105804 3.25599259734144 .0170887495432887 3.633094614410475 .0970894105514864 3
.178632564318915 .0174517898510639 3.298374770974225 .0974524508592615 3.1055867
9558004 .01745408029415425 2.98920138792498 .0974547413023519 3.037671547463165
 .0171609256552818 2.69646289606997 .0971615866634794 2.973748650824775 .0165944
866165641 2.40462543527667 .0965951476247617 2.91443056883941 .01574090966576345
 2.1012231952575 .0957415706739611 2.863522443461025 .01457378134011264 1.775984
670256725 .0945744423483103 2.83057746292487 .01308624213057906 1.42008817416518
2 .0930869031387767 2.835588405093805 .01135638067457132 1.026646778024854 .0913
570416827689 2.91159543610355 .00968760794541706 .596263440751833 .0896882689536
147 3.00510342691865 .00895268512046621 .31790941515033 .0889533461286639 3.1092
06816774205 .00865289010480172 .0722572152830874 .0886535511129994 3.22067071637
822 .00873771236098488 6.10459690725398 .0887383733691825 3.31118820060052 .0091
4515541830868 5.87703138242507 .0891458164265063 3.40218004501458 .0101197475071
8076 5.56264843420898 .0901204085153784 3.45071335871805 .0115364958893588 5.214
89894090124 .0915371568975564 14 255 128 222 135 ?132 133 134 6 117 +0 0 132 133
 26 50 127 486 0 80 138 117 0 +-.03225 0 .1031652228440228 0 1 0 0 0 1 50 129 16
5 0 140 117 124 0 +-.001 0 .0285 0 0 -1 -1 0 0 141 255 131 21 136 136 117 141 13
6 137 131 131 117 38 137 240 0 123 139 109 0 +130 117 144 145 145 142 16 123 206
 143 ?141 93 116 137 0 0 1 38 139 492 0 51 82 137 0 +130 23 148 150 146 149 31 1
09 169 0 97 137 115 0 +0 0 .0285 0 0 -1 -1 0 0 .0015 52 130 109 0 17 22 147 151
 -0 0 .0235714285714286 0 0 -1 .002 .813733471206735 .581238193719097 -1 0 0 40
 20 144 0 1 20 .000645659649191431 .396472398304861 ??.0172233609344827 -.005543
4894858009 .01207607742502186 .01970010945405745 -.00619274298356183 .0102496216
208633 .02228967101311825 -.00576171907087514 .00855549157285095 .02412820576127
75 -.00462578827796469 .00745169595886973 .025532399064479 -.002798671218873745
 .00665333869861509 .02614917886633015 -.00079221163200162 .00631344537367424 .0
261007033848716 .001105177908672042 .00633993493412509 .02552413476099085 .00281
494851505543 .00665793573087057 .0244782041277709 .004287853517789065 .007249343
7156274 .02298404868748145 .00543465301843092 .00813012061819159 .02107625577007
39 .0061058720521628 .00932651024749383 .0188621580432461 .00609469570048008 .01
084116483860798 .01659401771948065 .00518066450417205 .01258291358283106 .014735
18420729806 .003274402948464985 .01421813294035782 .01405030827479404 .001743894
599743815 .01488705792339458 .01380551868582244 .000261536323107872 .01513714587
214245 .0139283296976937 -.001254918220479526 .015010893997537 .0143680818480467
 -.002592585182727605 .01457134848558472 .01547320326550765 -.00423652113467989
 .01354093063444304 .0172233609506843 -.00554348947774009 .0120760774335436 41 1
 145 H?.0172233609506843 -.00554348947774009 .0120760774335436 204 80 142 4 3.45
2980784672455 .011495351128633 5.1767426564151 .091089145419001 3.44616266959361
5 .01332180695056526 4.76077730404582 .0929156012231595 3.39454841314744 .015015
93699857765 4.334131407944955 .0946097312711719 3.33101129505206 .01611973261255
885 3.9837703485037 .0957135268851531 3.250769340545005 .0169180898728135 3.6099
24724798095 .0965118841454077 3.1718792409928 .01725798319775435 3.2697189969932
85 .0968517774703486 3.099275092069855 .0172314936373035 2.962380397176955 .0968
252879098978 3.031750795255875 .016913492840558 2.67031620855165 .09650728711315
23 2.968181785780865 .01632208485580115 2.377905584062985 .0959158791283954 2.90
9403944857235 .015441307953237 2.072931431881195 .0950351022258313 2.85960844613
5225 .01424491832393474 1.74526981194064 .093838712596529 2.82906423967612 .0127
302637328206 1.386227301038896 .0923240580054148 2.83898044978169 .0109885149885
9752 .989207808844061 .0905823092611918 2.922929038624765 .00935329563107076 .55
639630670411 .088947089903665 3.01810629341046 .008684370648034 .285120743903335
 .0882781649206283 3.122650587854715 .00843428269928612 .04219579830638815 .0880
280769718804 3.23144829385332 .00856053457389159 6.07937098663232 .0881543288464
859 3.32011232303641 .00900008008584386 5.85176774299618 .0885938743584381 3.408
84037190169 .01003049793698554 5.53089897550754 .0896242922095798 3.452980783974
025 .01149535113788498 5.17674265466091 .0910891454104792 14 17 88 155 ?122 0 79
 6 130 -0 0 122 0 26 51 147 110 0 153 130 20 0 -0 0 .0125 0 0 -1 .002 -1 0 0 141
 151 137 152 154 130 141 152 139 154 151 130 141 154 156 151 152 130 38 156 495
 0 96 160 158 0 +130 138 157 159 161 165 16 96 378 162 ?58 81 163 156 0 0 1 38 1
60 496 0 163 164 156 0 +22 138 167 170 169 166 30 255 158 494 0 81 156 82 0 +0 0
 .02438554819521125 .813733471206735 0 .581238193719097 50 138 488 0 168 23 127
 171 +-.03225 -.005 .1031652228440228 0 1 0 0 0 1 40 2 157 0 1 2 .00820005409937
44 .1395657618919422 ??-.0592047914011776 -.005 -.0174396770269462 -.00529520859
882244 -.005 .0197979971427283 41 1 159 L?-.0592047914011776 -.005 -.01743967702
69462 41 1 161 L?-.00529520859882244 -.005 .0197979971427283 204 8 165 4 6.19893
260706989 .0410111055983748 -.120604899870969 -.0269547914011776 5.5264536566689
7 .00377343142870026 -.0833672257012945 .0269547914011776 14 168 468 172 ?0 80 1
74 6 138 +0 0 0 80 26 50 23 489 0 132 0 138 173 +-.0295 -.0025 .1031652228440228
 1 0 0 0 0 -1 141 171 160 175 175 138 141 175 156 171 171 138 14 132 472 176 ?80
 128 37 6 23 -0 0 80 128 26 141 173 8 180 180 23 141 180 139 173 173 23 81 1 176
 608 178 132 177 0 135 179 185 14 80 460 179 ?168 132 73 6 127 -0 0 168 132 26 1
5 37 431 0 33 132 0 13 26 80 0 0 0 0 0 0 10 17 81 1 179 609 178 80 181 0 176 172
 183 80 7 CCCCCDI12 legal_owners0 17 1 lCZ1 178 0 182 8001 0 0 0 0 3 5 0 0 0 FFF
FTFTFFFFFFFFFF2 81 1 181 591 38 80 0 179 105 184 186 81 1 172 610 178 168 184 0
 179 0 190 83 255 3 183 .615686274509804 .811764705882353 .929411764705882 81 1
 184 592 38 168 0 172 181 177 187 83 3 190 .615686274509804 .811764705882353 .92
9411764705882 80 1 38 188 189 9000 0 0 0 0 3 6 0 0 0 FFTFTFTTFFFFFFFFF1 81 1 177
 593 38 132 0 176 184 193 195 82 255 3 187 16 1 2 81 1 193 594 38 19 0 191 177 1
92 194 82 3 195 16 2 2 14 19 106 191 ?199 122 84 6 7 +0 0 199 122 26 81 1 191 60
2 178 19 193 0 200 197 198 81 1 192 595 38 17 0 155 193 196 203 82 3 194 16 3 2
 81 1 155 600 178 17 192 0 0 200 205 81 1 196 596 38 122 0 200 192 0 201 82 3 20
3 16 4 2 14 122 157 200 ?19 17 204 6 22 +0 0 19 17 26 81 1 200 601 178 122 196 0
 155 191 202 82 3 201 16 5 2 83 3 202 .615686274509804 .811764705882353 .9294117
64705882 15 204 283 0 78 122 206 17 78 0 204 86 210 46 42 81 0 90 -15 206 160 0
 208 122 207 17 208 0 206 208 208 0 209 108 0 0 -15 207 183 0 125 122 0 17 125 0
 207 125 125 0 211 116 0 0 +17 211 0 134 211 211 0 125 116 0 0 -15 134 215 0 211
 128 215 15 215 216 0 141 128 0 17 141 0 215 141 141 0 213 123 0 0 +17 213 0 212
 213 213 0 141 123 0 0 -15 212 191 0 213 17 0 17 209 0 214 209 209 0 208 108 0 0
 +16 108 145 216 ?209 97 93 115 0 0 1 81 1 216 171 38 108 0 0 220 110 217 16 93
 141 105 ?86 108 123 112 0 0 1 31 115 168 0 108 109 112 0 +0 0 .0233141196237827
 0 0 -1 -1 0 0 .0015 81 1 105 590 38 93 0 0 100 181 218 17 86 0 204 219 78 61 90
 93 0 0 +17 219 0 204 210 86 53 64 163 0 0 +17 210 0 204 78 219 12 34 11 0 0 -17
 64 0 174 70 222 61 219 163 0 87 -16 163 357 225 ?219 96 224 160 0 0 1 81 1 225
 585 38 163 0 0 221 28 223 16 224 387 101 ?222 163 43 164 0 0 1 81 1 101 588 38
 224 0 0 226 100 227 17 222 0 174 64 58 53 47 224 0 219 +16 43 366 226 ?33 224 9
5 229 0 0 1 30 164 499 0 224 229 160 0 +-.0295 -.005 .1031652228440228 0 0 -1 30
 229 500 0 43 228 164 0 +-.0295 0 .1031652228440228 0 0 -1 30 228 502 0 95 91 22
9 0 +-.03225 -.005 0 1 0 0 16 95 375 230 ?87 43 77 228 0 0 1 30 91 504 0 77 0 22
8 0 +-.03225 0 0 1 0 0 81 1 230 580 38 95 0 0 75 85 231 17 87 0 84 90 89 61 70 9
5 0 86 +17 70 0 174 58 64 63 87 95 0 94 -15 174 455 0 58 168 0 17 58 0 174 222 7
0 59 94 96 0 47 +17 47 0 37 41 34 59 222 224 0 49 -17 34 0 37 47 33 53 210 11 0
 222 +17 49 0 79 94 72 59 41 51 0 0 +16 51 320 235 ?49 116 74 139 0 0 1 81 1 235
 583 38 51 0 0 162 221 233 81 1 162 582 38 96 0 0 85 235 232 81 1 221 584 38 81
 0 0 235 225 234 82 3 233 16 4 1 16 81 346 221 ?42 74 96 158 0 0 1 82 3 234 16 5
 1 17 42 0 73 45 52 12 78 81 0 210 +81 1 85 581 38 74 0 0 230 162 240 82 3 232 1
6 3 1 82 3 240 16 2 1 81 1 75 579 38 77 0 0 67 230 236 82 3 231 16 1 1 82 3 236
 16 0 1 81 1 226 587 38 43 0 0 28 101 238 81 1 28 586 38 11 0 0 225 226 237 82 3
 238 16 8 1 82 3 237 16 7 1 82 3 227 16 9 1 82 3 223 16 6 1 82 3 218 16 11 1 81
 1 220 134 38 1 0 239 241 216 245 81 1 110 172 38 97 0 0 216 242 243 82 3 217 7
 1 1 81 1 242 174 38 140 0 244 110 248 250 82 3 243 7 2 1 14 140 150 244 ?133 15
3 246 6 129 +0 0 133 153 26 81 1 244 605 178 140 242 0 247 249 254 81 1 248 175
 38 133 0 249 242 143 255 82 3 250 7 1 2 14 133 153 249 ?128 140 214 6 124 +0 0
 128 140 26 81 1 249 606 178 133 248 0 244 135 252 81 1 143 244 38 123 0 0 248 1
21 253 82 3 255 7 2 2 81 1 121 245 38 116 0 0 143 251 258 82 3 253 12 0 1 81 1 2
51 246 38 128 0 135 121 66 260 82 3 258 12 1 1 81 1 135 607 178 128 251 0 249 17
6 256 81 1 66 571 38 63 0 0 251 55 259 82 3 260 12 0 2 81 1 55 572 38 46 0 0 66
 50 257 82 3 259 16 0 0 81 1 50 573 38 61 0 0 55 44 261 82 3 257 16 1 0 82 3 261
 16 2 0 83 3 256 .615686274509804 .811764705882353 .929411764705882 83 3 252 .61
5686274509804 .811764705882353 .929411764705882 15 214 155 0 209 133 265 51 124
 164 0 133 129 22 0 -0 0 .0125 0 0 -1 .0015 -1 0 0 15 265 156 0 263 133 0 17 263
 0 265 263 263 0 107 97 0 0 -17 107 0 246 107 107 0 263 97 0 0 +15 246 152 0 107
 140 0 81 1 247 604 178 153 241 0 197 244 262 83 3 254 .615686274509804 .8117647
05882353 .929411764705882 14 153 93 247 ?140 199 264 6 147 -0 0 140 199 26 81 1
 241 133 38 153 0 247 266 220 270 81 1 197 603 178 199 266 0 191 247 268 83 3 26
2 .615686274509804 .811764705882353 .929411764705882 14 199 98 197 ?153 19 267 6
 20 -0 0 153 19 26 81 1 266 132 38 199 0 197 111 241 269 83 3 268 .6156862745098
04 .811764705882353 .929411764705882 81 1 111 129 38 35 0 0 102 266 271 82 3 269
 6 2 2 81 1 102 128 38 98 0 0 0 111 275 82 3 271 6 2 1 82 3 275 6 1 1 15 267 125
 0 272 199 0 50 20 111 0 199 147 7 0 +-.001 0 .029 0 0 -1 -1 0 0 17 272 0 267 27
2 272 0 113 35 0 0 -17 113 0 273 113 113 0 272 35 0 0 +15 273 92 0 113 153 0 82
 3 270 6 3 2 15 264 124 0 274 153 273 17 274 0 264 274 274 0 104 98 0 0 -17 104
 0 92 104 104 0 274 98 0 0 +15 92 87 0 104 17 212 81 1 239 597 277 1 220 14 0 0
 280 82 3 245 6 0 3 80 1 277 279 276 8038 0 0 0 0 0 0 0 0 0 TTTTTTTTTTTTTFTFT10
 81 1 14 598 279 1 239 2 0 0 278 98 255 6 280 80 97 114 116 32 49 80 1 279 281 2
82 8017 0 0 0 0 0 0 0 0 0 TTTTTTTTTTTTTFTFT3 84 255 6 278 Part 179 255 13 282 SD
L/TYSA_NAME79 14 276 SDL/TYSA_UNAME83 3 205 .615686274509804 .811764705882353 .9
29411764705882 83 3 198 .615686274509804 .811764705882353 .929411764705882 79 9
 189 BTI/DetId82 3 186 16 0 2 79 15 182 SDL/TYSA_COLOUR83 3 185 .615686274509804
 .811764705882353 .929411764705882 30 82 493 0 74 158 139 0 +0 0 .025 .813733471
206735 0 .581238193719097 40 2 167 0 1 2 .00705058916227047 .124807875459371 ??-
.0579112866634101 -.005 -.0171335470122073 -.00572848080988561 -.005 .0189543696
676184 41 1 170 L?-.0579112866634101 -.005 -.0171335470122073 41 1 169 L?-.00572
848080988561 -.005 .0189543696676184 204 8 166 4 6.1970599327299 .04029810884803
255 -.1202987698562302 -.02566128666341015 5.5655846563959 .004210192168206805 -
.0842108531764044 .0265215191901144 40 4 148 0 1 4 .004118661712032095 .36686687
87255255 ??-.0295 .02409609684776145 -.00220736585529791 -.0295 .003746686221060
04 .003759303865813675 -.0295 -.01280610106192022 .00202878659917632 -.0295 -.02
909609684776145 -.00459620125043555 41 1 150 L?-.0295 .02409609684776145 -.00220
736585529791 41 1 146 L?-.0295 -.02909609684776145 -.00459620125043555 204 16 14
9 4 .684911329677692 .0257787944267265 .1053725886993206 .02659609684776145 .126
3299505319118 .0198121247056149 .0994059189782092 .00624668622106004 5.873627886
97892 .02154264197225225 .1011364362448464 -.01030610106192022 5.50468003899525
 .02816762982186415 .1077614240944584 -.02659609684776145 141 126 21 284 283 22
 141 284 8 283 126 22 141 283 160 126 284 22 82 3 103 16 10 1 81 1 36 577 38 53
 0 0 32 67 285 82 3 71 16 7 0 82 3 285 16 6 0 81 1 40 575 38 59 0 0 44 32 286 82
 3 286 16 4 0 82 3 48 16 3 0 82 3 39 16 5 0 19 18 68 0 1 0 10 6 0 S0 40 4 24 0 1
 4 .004121110379200195 .3657116491850605 ??-.0295 .02384444823373655 -.002708465
29722351 -.0295 .003555167951640205 .003161654036807415 -.0295 -.013000326552080
62 .001358739391027016 -.0295 -.02884444823373655 -.00508470828993598 41 1 25 L?
-.0295 .02384444823373655 -.00270846529722351 41 1 27 L?-.0295 -.028844448233736
55 -.00508470828993598 204 16 30 4 .679773229599787 .0258730271330487 .105873688
1412464 .02634444823373655 .119935764086361 .0200029077990178 .1000035688072154
 .00605516795164021 5.86810130406271 .0218058224447982 .1018064834529958 -.01050
032655208062 5.50902256037173 .0282492701257612 .1082499311339588 -.026344448233
73655 74 4 CI16 index_map_offset0 0 1 dCCZ20 16 5 0 0 196 239 14 2 172 0 0 0 0 0
 0 0 0 0 0 0 0 0 0 0 80 1 13 178 290 8040 0 0 0 0 3 5 0 0 0 TTTFFFFFFFFFFFFFF2 8
3 3 15 .615686274509804 .811764705882353 .929411764705882 79 17 290 SDL/TYSA_COL
OUR_21 0 
